HIERARCHY
ROOT Hips
{
	OFFSET -0.001795 -0.223333 0.028219
	CHANNELS 6 Xposition Yposition Zposition Zrotation Yrotation Xrotation 
	JOINT LeftUpLeg
	{
		OFFSET 0.069520 -0.091406 -0.006815
		CHANNELS 3 Zrotation Yrotation Xrotation
		JOINT LeftLeg
		{
			OFFSET 0.034277 -0.375199 -0.004496
			CHANNELS 3 Zrotation Yrotation Xrotation
			JOINT LeftFoot
			{
				OFFSET -0.013596 -0.397961 -0.043693
				CHANNELS 3 Zrotation Yrotation Xrotation
				JOINT LeftToe
				{
					OFFSET 0.026358 -0.055791 0.119288
					CHANNELS 3 Zrotation Yrotation Xrotation
					End Site
					{
						OFFSET 0.000000 0.000000 0.000000
					}
				}
			}
		}
	}
	JOINT RightUpLeg
	{
		OFFSET -0.067670 -0.090522 -0.004320
		CHANNELS 3 Zrotation Yrotation Xrotation
		JOINT RightLeg
		{
			OFFSET -0.038290 -0.382569 -0.008850
			CHANNELS 3 Zrotation Yrotation Xrotation
			JOINT RightFoot
			{
				OFFSET 0.015774 -0.398415 -0.042312
				CHANNELS 3 Zrotation Yrotation Xrotation
				JOINT RightToe
				{
					OFFSET -0.025372 -0.048144 0.123348
					CHANNELS 3 Zrotation Yrotation Xrotation
					End Site
					{
						OFFSET 0.000000 0.000000 0.000000
					}
				}
			}
		}
	}
	JOINT Spine
	{
		OFFSET -0.002533 0.108963 -0.026696
		CHANNELS 3 Zrotation Yrotation Xrotation
		JOINT Spine1
		{
			OFFSET 0.005487 0.135180 0.001092
			CHANNELS 3 Zrotation Yrotation Xrotation
			JOINT Spine2
			{
				OFFSET 0.001457 0.052922 0.025425
				CHANNELS 3 Zrotation Yrotation Xrotation
				JOINT Neck
				{
					OFFSET -0.002778 0.213870 -0.042857
					CHANNELS 3 Zrotation Yrotation Xrotation
					JOINT Head
					{
						OFFSET 0.005152 0.064970 0.051349
						CHANNELS 3 Zrotation Yrotation Xrotation
						End Site
						{
							OFFSET 0.000000 0.000000 0.000000
						}
					}
				}
				JOINT LeftShoulder
				{
					OFFSET 0.078845 0.121749 -0.034090
					CHANNELS 3 Zrotation Yrotation Xrotation
					JOINT LeftArm
					{
						OFFSET 0.090977 0.030469 -0.008868
						CHANNELS 3 Zrotation Yrotation Xrotation
						JOINT LeftForeArm
						{
							OFFSET 0.259612 -0.012772 -0.027456
							CHANNELS 3 Zrotation Yrotation Xrotation
							JOINT LeftHand
							{
								OFFSET 0.249234 0.008986 -0.001171
								CHANNELS 3 Zrotation Yrotation Xrotation
								End Site
								{
									OFFSET 0.000000 0.000000 0.000000
								}
							}
						}
					}
				}
				JOINT RightShoulder
				{
					OFFSET -0.081759 0.118833 -0.038615
					CHANNELS 3 Zrotation Yrotation Xrotation
					JOINT RightArm
					{
						OFFSET -0.096012 0.032551 -0.009143
						CHANNELS 3 Zrotation Yrotation Xrotation
						JOINT RightForeArm
						{
							OFFSET -0.253742 -0.013329 -0.021401
							CHANNELS 3 Zrotation Yrotation Xrotation
							JOINT RightHand
							{
								OFFSET -0.255298 0.007772 -0.005559
								CHANNELS 3 Zrotation Yrotation Xrotation
								End Site
								{
									OFFSET 0.000000 0.000000 0.000000
								}
							}
						}
					}
				}
			}
		}
	}
}
MOTION
Frames: 13
Frame Time: 0.050000
0.000000 0.945414 0.000000 -1.489477 -12.307204 -1.564110 6.825769 0.203422 0.929230 -1.400355 0.149203 4.542110 3.951265 9.166438 5.475249 0.000000 0.000000 0.000000 -2.394689 0.493816 -5.121962 3.335263 0.026523 10.587595 -2.682445 -9.048427 5.330343 0.000000 0.000000 0.000000 -0.635692 -0.235784 8.491802 6.203495 -1.410185 -20.689830 0.189248 1.113696 29.633586 -1.486525 1.236899 -19.903204 0.000000 0.000000 0.000000 -18.125194 2.347090 -0.587792 -55.312601 -5.168070 -6.962968 -11.560012 -28.075295 4.879835 0.000000 0.000000 0.000000 10.918002 4.329950 0.469967 58.531834 2.357720 -7.656281 -1.740096 27.564015 0.561613 0.000000 0.000000 0.000000 
-0.001611 0.944006 0.000509 -1.691823 -12.684403 -1.182590 8.066902 0.209557 -0.021045 -2.533322 0.364716 5.528915 4.078129 9.206684 3.676306 0.000000 0.000000 0.000000 -1.684847 0.629538 -6.604976 2.598879 0.295467 13.220050 -2.835518 -9.315846 5.131843 0.000000 0.000000 0.000000 -0.313667 -0.276530 9.345284 6.073281 -1.353679 -21.016659 1.250456 0.496310 29.401807 -2.728660 1.952415 -18.499655 0.000000 0.000000 0.000000 -18.714284 2.938059 -0.713295 -55.219134 -3.756825 -7.644663 -13.536353 -29.811112 5.888093 0.000000 0.000000 0.000000 10.016825 4.801396 0.647304 58.060844 0.832423 -8.356648 -2.173540 27.620399 0.396142 0.000000 0.000000 0.000000 
-0.003263 0.941841 -0.000225 -1.313735 -11.522958 -1.148862 8.288642 0.152742 -1.625288 -2.656367 0.411649 8.584765 3.574148 7.902793 1.340807 0.000000 0.000000 0.000000 -1.862299 0.757597 -8.034208 2.814283 0.366727 15.873156 -3.588502 -10.338596 3.767244 0.000000 0.000000 0.000000 -0.623589 -0.270926 10.416201 6.825076 -1.526186 -21.021023 0.831736 -0.605310 29.314855 -3.018775 2.079983 -19.547293 0.000000 0.000000 0.000000 -19.048255 3.108765 -0.744848 -54.461794 -3.804543 -7.586314 -14.308610 -30.146173 6.186067 0.000000 0.000000 0.000000 8.895939 4.912839 0.777427 58.392627 -0.335823 -9.052751 -2.107988 29.089585 0.408142 0.000000 0.000000 0.000000 
-0.005008 0.941862 -0.002817 -0.850679 -11.501713 -1.364932 8.960229 0.173721 -2.661127 -3.373306 0.607680 10.262163 2.886089 6.509002 1.618372 0.000000 0.000000 0.000000 -2.336054 0.888858 -9.603041 3.313481 0.371866 17.956302 -3.831755 -11.132671 4.471911 0.000000 0.000000 0.000000 -0.923759 -0.256566 12.578341 7.445602 -1.723747 -20.669978 0.881677 -0.140175 28.706869 -3.616643 2.597559 -19.076484 0.000000 0.000000 0.000000 -18.777860 2.898040 -0.807304 -53.721887 -3.094826 -7.721196 -16.237877 -31.743892 7.063870 0.000000 0.000000 0.000000 8.751321 5.712210 1.196971 56.621905 -0.606034 -8.788036 -1.290738 29.483090 0.615031 0.000000 0.000000 0.000000 
-0.006780 0.941640 -0.007784 -0.336041 -10.286392 -1.392628 8.908082 0.117567 -4.654366 -2.844240 0.518172 13.121603 2.607722 5.853548 1.226427 0.000000 0.000000 0.000000 -3.030697 1.000372 -11.265642 4.038169 0.223303 19.590185 -4.664055 -12.893375 4.563419 0.000000 0.000000 0.000000 -0.433446 -0.349579 14.968943 7.370438 -1.818600 -19.400320 0.688986 0.224052 27.435502 -4.047335 3.068777 -19.766303 0.000000 0.000000 0.000000 -17.919432 2.467378 -0.896353 -53.852611 -3.312993 -7.429393 -16.720835 -33.859174 7.636772 0.000000 0.000000 0.000000 8.161542 5.728954 1.382237 56.436976 -0.848605 -8.684388 0.001399 29.602598 0.991949 0.000000 0.000000 0.000000 
-0.008326 0.941758 -0.015169 0.228213 -9.242096 -1.062547 9.019645 0.076026 -6.642697 -3.449295 0.690302 15.011856 2.118555 4.730508 0.788448 0.000000 0.000000 0.000000 -3.951943 1.113135 -13.355691 4.938108 -0.003210 21.230775 -5.395438 -14.630512 5.442678 0.000000 0.000000 0.000000 -0.096144 -0.439441 17.425522 7.021761 -1.790020 -18.497695 1.074255 0.568219 26.476484 -4.354372 3.429953 -20.091637 0.000000 0.000000 0.000000 -18.304125 1.773347 -0.805207 -52.734365 -3.579150 -7.114257 -17.493558 -35.841684 8.259719 0.000000 0.000000 0.000000 7.331122 6.075452 1.690075 55.590357 -0.641767 -8.312019 0.465078 29.747197 1.154701 0.000000 0.000000 0.000000 
-0.009120 0.941650 -0.024356 0.655455 -7.837885 -0.074984 9.330867 0.036432 -9.254294 -3.750383 0.757967 16.526106 1.822811 4.273076 1.393802 0.000000 0.000000 0.000000 -5.007452 1.182258 -15.508228 5.651507 -0.279520 21.700503 -5.701326 -15.351718 5.957857 0.000000 0.000000 0.000000 0.450872 -0.604811 19.879150 6.769532 -1.727015 -17.961603 0.929621 1.300281 25.735770 -4.174341 3.545735 -20.570104 0.000000 0.000000 0.000000 -18.797136 0.899896 -0.755258 -51.534374 -4.981294 -6.319581 -17.317751 -36.804488 8.231653 0.000000 0.000000 0.000000 6.912619 6.303756 1.970355 55.508069 0.148834 -7.785780 0.947576 29.970244 1.384105 0.000000 0.000000 0.000000 
-0.008622 0.940142 -0.034568 0.908416 -6.269022 0.498322 10.042395 0.063746 -12.477919 -4.756226 1.061259 19.357833 1.772250 4.070214 1.004956 0.000000 0.000000 0.000000 -5.864228 1.207178 -17.572719 6.627095 -0.653918 22.998730 -6.496722 -17.033218 6.769062 0.000000 0.000000 0.000000 1.257534 -0.882262 22.506235 6.540044 -1.689224 -17.213700 1.157501 2.288799 25.412509 -4.397653 3.984119 -19.968149 0.000000 0.000000 0.000000 -20.277738 -0.862463 -0.343440 -49.476399 -6.463142 -5.476404 -16.522768 -38.337968 8.057830 0.000000 0.000000 0.000000 5.963630 7.167001 2.519797 55.017885 1.964992 -6.770581 0.770078 30.139058 1.463556 0.000000 0.000000 0.000000 
-0.006048 0.937260 -0.044622 1.209573 -5.280915 1.471399 10.420089 0.082952 -15.415917 -5.414942 1.306521 21.978183 2.306404 5.247538 1.254056 0.000000 0.000000 0.000000 -7.237185 1.153318 -19.773279 7.711103 -1.063923 23.852094 -6.819403 -17.674084 6.872311 0.000000 0.000000 0.000000 2.025839 -1.173762 24.613678 6.079862 -1.574118 -16.584813 1.281900 3.181403 24.861701 -4.800252 4.464417 -19.179189 0.000000 0.000000 0.000000 -21.837237 -2.408147 0.016888 -47.985731 -6.398441 -5.253859 -16.934337 -39.730160 8.316778 0.000000 0.000000 0.000000 7.251773 8.497167 3.242089 51.905438 3.626633 -5.627718 -0.375452 31.386401 1.287316 0.000000 0.000000 0.000000 
-0.001179 0.931815 -0.052882 1.391648 -3.934563 1.867839 10.835385 0.108492 -18.118180 -5.889902 1.499562 25.401222 2.579178 5.461757 0.013819 0.000000 0.000000 0.000000 -8.458687 1.019830 -21.808661 8.889398 -1.586086 25.457219 -7.534082 -19.015440 6.540454 0.000000 0.000000 0.000000 2.615648 -1.478027 26.487873 5.986306 -1.533366 -16.322330 1.546918 4.316059 25.339899 -5.043629 4.909900 -19.493001 0.000000 0.000000 0.000000 -23.776682 -3.950171 0.235787 -45.451968 -6.342821 -4.937273 -17.809686 -41.557795 8.818786 0.000000 0.000000 0.000000 7.780746 10.005980 4.132279 49.572308 5.607193 -4.657469 -2.196500 33.214444 0.985238 0.000000 0.000000 0.000000 
0.005648 0.926087 -0.058429 1.579566 -3.288986 1.575379 10.878816 0.102484 -19.224916 -6.028694 1.586596 27.801666 3.179435 6.723003 0.046480 0.000000 0.000000 0.000000 -9.294927 0.881559 -22.814441 9.320652 -1.845290 27.299855 -7.758459 -19.400950 6.027646 0.000000 0.000000 0.000000 2.822989 -1.652039 28.179125 5.941534 -1.562207 -15.652480 1.720761 5.030499 25.487311 -5.517490 5.391402 -19.309881 0.000000 0.000000 0.000000 -24.769415 -4.127466 -0.089439 -44.421203 -5.259358 -5.124395 -20.976226 -42.936178 10.282361 0.000000 0.000000 0.000000 7.977048 11.396004 4.864870 46.739512 8.146654 -3.550701 -4.014915 35.294821 0.572043 0.000000 0.000000 0.000000 
0.014003 0.919949 -0.061249 1.581515 -2.914386 1.220683 10.950358 0.107270 -19.631500 -6.375037 1.753360 29.556057 3.738877 7.709691 -0.622864 0.000000 0.000000 0.000000 -9.791830 0.783606 -23.326342 9.661417 -2.067407 29.197149 -8.143978 -20.131974 5.417119 0.000000 0.000000 0.000000 2.968805 -1.763828 29.117965 5.564166 -1.465872 -15.304364 1.982618 5.923199 26.620615 -5.273188 5.438751 -18.978909 0.000000 0.000000 0.000000 -24.592392 -3.929729 -0.528659 -44.134193 -4.185205 -5.457726 -23.366226 -43.785506 11.381649 0.000000 0.000000 0.000000 7.825833 11.856514 5.182601 45.581641 10.938428 -2.606579 -7.070281 38.419146 -0.184019 0.000000 0.000000 0.000000 
0.023843 0.916715 -0.062688 1.344613 -2.383618 0.718274 11.245797 0.130568 -19.260393 -6.466494 1.747006 30.166062 4.074352 8.347696 -0.858672 0.000000 0.000000 0.000000 -9.995373 0.694334 -22.962422 9.688727 -2.155532 29.621424 -8.452896 -20.711225 4.858425 0.000000 0.000000 0.000000 2.915860 -1.831699 29.871278 5.815334 -1.533819 -15.405605 2.118743 6.536186 27.598719 -4.764011 5.268740 -18.465010 0.000000 0.000000 0.000000 -23.959494 -2.968365 -1.317585 -44.170606 -1.935198 -6.230010 -28.184135 -45.319609 13.810639 0.000000 0.000000 0.000000 6.819099 12.065103 5.231299 45.590610 13.704690 -1.631448 -10.041323 40.995636 -1.036714 0.000000 0.000000 0.000000 
